<mxfile host="app.diagrams.net" modified="2021-08-26T06:58:31.546Z" agent="5.0 (Windows NT 10.0; Win64; x64) AppleWebKit/537.36 (KHTML, like Gecko) Chrome/92.0.4515.159 Safari/537.36" etag="hREA_elCBrQWLmivu6n_" version="14.9.9" type="github">
  <diagram id="BQ98mIb-TkN1nnx-4qX1" name="Page-1">
    <mxGraphModel dx="754" dy="767" grid="1" gridSize="10" guides="1" tooltips="1" connect="1" arrows="1" fold="1" page="1" pageScale="1" pageWidth="850" pageHeight="1100" math="0" shadow="0">
      <root>
        <mxCell id="0" />
        <mxCell id="1" parent="0" />
        <mxCell id="777NN9L8n1OrQGpBT-4A-3" value="" style="verticalLabelPosition=bottom;html=1;verticalAlign=top;align=center;strokeColor=none;fillColor=#00BEF2;shape=mxgraph.azure.storage_queue;" vertex="1" parent="1">
          <mxGeometry x="315" y="370" width="50" height="45" as="geometry" />
        </mxCell>
        <mxCell id="777NN9L8n1OrQGpBT-4A-5" value="" style="endArrow=classic;html=1;" edge="1" parent="1">
          <mxGeometry width="50" height="50" relative="1" as="geometry">
            <mxPoint x="380" y="392" as="sourcePoint" />
            <mxPoint x="460" y="392" as="targetPoint" />
            <Array as="points">
              <mxPoint x="420" y="392" />
            </Array>
          </mxGeometry>
        </mxCell>
        <mxCell id="777NN9L8n1OrQGpBT-4A-6" value="" style="aspect=fixed;html=1;points=[];align=center;image;fontSize=12;image=img/lib/mscae/Functions.svg;" vertex="1" parent="1">
          <mxGeometry x="480" y="369.5" width="50" height="46" as="geometry" />
        </mxCell>
        <mxCell id="777NN9L8n1OrQGpBT-4A-7" value="" style="endArrow=classic;html=1;" edge="1" parent="1">
          <mxGeometry width="50" height="50" relative="1" as="geometry">
            <mxPoint x="380" y="392" as="sourcePoint" />
            <mxPoint x="460" y="392" as="targetPoint" />
            <Array as="points">
              <mxPoint x="420" y="392" />
            </Array>
          </mxGeometry>
        </mxCell>
        <mxCell id="777NN9L8n1OrQGpBT-4A-8" value="" style="endArrow=classic;html=1;" edge="1" parent="1" source="777NN9L8n1OrQGpBT-4A-6">
          <mxGeometry width="50" height="50" relative="1" as="geometry">
            <mxPoint x="540" y="402" as="sourcePoint" />
            <mxPoint x="600" y="390" as="targetPoint" />
            <Array as="points">
              <mxPoint x="530" y="390" />
              <mxPoint x="580" y="390" />
            </Array>
          </mxGeometry>
        </mxCell>
        <mxCell id="777NN9L8n1OrQGpBT-4A-9" value="" style="aspect=fixed;html=1;points=[];align=center;image;fontSize=12;image=img/lib/mscae/Table_Storage.svg;" vertex="1" parent="1">
          <mxGeometry x="620" y="370" width="50" height="48" as="geometry" />
        </mxCell>
        <mxCell id="777NN9L8n1OrQGpBT-4A-11" value="queue storage" style="text;html=1;align=center;verticalAlign=middle;resizable=0;points=[];autosize=1;strokeColor=none;" vertex="1" parent="1">
          <mxGeometry x="285" y="420" width="90" height="20" as="geometry" />
        </mxCell>
        <mxCell id="777NN9L8n1OrQGpBT-4A-12" value="azure function" style="text;html=1;align=center;verticalAlign=middle;resizable=0;points=[];autosize=1;strokeColor=none;" vertex="1" parent="1">
          <mxGeometry x="465" y="410" width="90" height="20" as="geometry" />
        </mxCell>
        <mxCell id="777NN9L8n1OrQGpBT-4A-14" value="Table storage" style="text;html=1;align=center;verticalAlign=middle;resizable=0;points=[];autosize=1;strokeColor=none;" vertex="1" parent="1">
          <mxGeometry x="595" y="430" width="90" height="20" as="geometry" />
        </mxCell>
      </root>
    </mxGraphModel>
  </diagram>
</mxfile>
